<svg xmlns:xlink="http://www.w3.org/1999/xlink" width="83.397ex" height="2.843ex" style="font-size: 15px; vertical-align: -0.838ex;" viewBox="0 -863.1 35907.1 1223.9" role="img" focusable="false" xmlns="http://www.w3.org/2000/svg">
<defs>
<path stroke-width="1" id="E1-MJMATHI-50" d="M287 628Q287 635 230 637Q206 637 199 638T192 648Q192 649 194 659Q200 679 203 681T397 683Q587 682 600 680Q664 669 707 631T751 530Q751 453 685 389Q616 321 507 303Q500 302 402 301H307L277 182Q247 66 247 59Q247 55 248 54T255 50T272 48T305 46H336Q342 37 342 35Q342 19 335 5Q330 0 319 0Q316 0 282 1T182 2Q120 2 87 2T51 1Q33 1 33 11Q33 13 36 25Q40 41 44 43T67 46Q94 46 127 49Q141 52 146 61Q149 65 218 339T287 628ZM645 554Q645 567 643 575T634 597T609 619T560 635Q553 636 480 637Q463 637 445 637T416 636T404 636Q391 635 386 627Q384 621 367 550T332 412T314 344Q314 342 395 342H407H430Q542 342 590 392Q617 419 631 471T645 554Z"></path>
<path stroke-width="1" id="E1-MJMAIN-3D" d="M56 347Q56 360 70 367H707Q722 359 722 347Q722 336 708 328L390 327H72Q56 332 56 347ZM56 153Q56 168 72 173H708Q722 163 722 153Q722 140 707 133H70Q56 140 56 153Z"></path>
<path stroke-width="1" id="E1-MJMAIN-28" d="M94 250Q94 319 104 381T127 488T164 576T202 643T244 695T277 729T302 750H315H319Q333 750 333 741Q333 738 316 720T275 667T226 581T184 443T167 250T184 58T225 -81T274 -167T316 -220T333 -241Q333 -250 318 -250H315H302L274 -226Q180 -141 137 -14T94 250Z"></path>
<path stroke-width="1" id="E1-MJMATHI-44" d="M287 628Q287 635 230 637Q207 637 200 638T193 647Q193 655 197 667T204 682Q206 683 403 683Q570 682 590 682T630 676Q702 659 752 597T803 431Q803 275 696 151T444 3L430 1L236 0H125H72Q48 0 41 2T33 11Q33 13 36 25Q40 41 44 43T67 46Q94 46 127 49Q141 52 146 61Q149 65 218 339T287 628ZM703 469Q703 507 692 537T666 584T629 613T590 629T555 636Q553 636 541 636T512 636T479 637H436Q392 637 386 627Q384 623 313 339T242 52Q242 48 253 48T330 47Q335 47 349 47T373 46Q499 46 581 128Q617 164 640 212T683 339T703 469Z"></path>
<path stroke-width="1" id="E1-MJMAIN-36" d="M42 313Q42 476 123 571T303 666Q372 666 402 630T432 550Q432 525 418 510T379 495Q356 495 341 509T326 548Q326 592 373 601Q351 623 311 626Q240 626 194 566Q147 500 147 364L148 360Q153 366 156 373Q197 433 263 433H267Q313 433 348 414Q372 400 396 374T435 317Q456 268 456 210V192Q456 169 451 149Q440 90 387 34T253 -22Q225 -22 199 -14T143 16T92 75T56 172T42 313ZM257 397Q227 397 205 380T171 335T154 278T148 216Q148 133 160 97T198 39Q222 21 251 21Q302 21 329 59Q342 77 347 104T352 209Q352 289 347 316T329 361Q302 397 257 397Z"></path>
<path stroke-width="1" id="E1-MJMAIN-29" d="M60 749L64 750Q69 750 74 750H86L114 726Q208 641 251 514T294 250Q294 182 284 119T261 12T224 -76T186 -143T145 -194T113 -227T90 -246Q87 -249 86 -250H74Q66 -250 63 -250T58 -247T55 -238Q56 -237 66 -225Q221 -64 221 250T66 725Q56 737 55 738Q55 746 60 749Z"></path>
<path stroke-width="1" id="E1-MJMAIN-2217" d="M229 286Q216 420 216 436Q216 454 240 464Q241 464 245 464T251 465Q263 464 273 456T283 436Q283 419 277 356T270 286L328 328Q384 369 389 372T399 375Q412 375 423 365T435 338Q435 325 425 315Q420 312 357 282T289 250L355 219L425 184Q434 175 434 161Q434 146 425 136T401 125Q393 125 383 131T328 171L270 213Q283 79 283 63Q283 53 276 44T250 35Q231 35 224 44T216 63Q216 80 222 143T229 213L171 171Q115 130 110 127Q106 124 100 124Q87 124 76 134T64 161Q64 166 64 169T67 175T72 181T81 188T94 195T113 204T138 215T170 230T210 250L74 315Q65 324 65 338Q65 353 74 363T98 374Q106 374 116 368T171 328L229 286Z"></path>
<path stroke-width="1" id="E1-MJMAIN-2192" d="M56 237T56 250T70 270H835Q719 357 692 493Q692 494 692 496T691 499Q691 511 708 511H711Q720 511 723 510T729 506T732 497T735 481T743 456Q765 389 816 336T935 261Q944 258 944 250Q944 244 939 241T915 231T877 212Q836 186 806 152T761 85T740 35T732 4Q730 -6 727 -8T711 -11Q691 -11 691 0Q691 7 696 25Q728 151 835 230H70Q56 237 56 250Z"></path>
<path stroke-width="1" id="E1-MJMAIN-31" d="M213 578L200 573Q186 568 160 563T102 556H83V602H102Q149 604 189 617T245 641T273 663Q275 666 285 666Q294 666 302 660V361L303 61Q310 54 315 52T339 48T401 46H427V0H416Q395 3 257 3Q121 3 100 0H88V46H114Q136 46 152 46T177 47T193 50T201 52T207 57T213 61V578Z"></path>
<path stroke-width="1" id="E1-MJMAIN-38" d="M70 417T70 494T124 618T248 666Q319 666 374 624T429 515Q429 485 418 459T392 417T361 389T335 371T324 363L338 354Q352 344 366 334T382 323Q457 264 457 174Q457 95 399 37T249 -22Q159 -22 101 29T43 155Q43 263 172 335L154 348Q133 361 127 368Q70 417 70 494ZM286 386L292 390Q298 394 301 396T311 403T323 413T334 425T345 438T355 454T364 471T369 491T371 513Q371 556 342 586T275 624Q268 625 242 625Q201 625 165 599T128 534Q128 511 141 492T167 463T217 431Q224 426 228 424L286 386ZM250 21Q308 21 350 55T392 137Q392 154 387 169T375 194T353 216T330 234T301 253T274 270Q260 279 244 289T218 306L210 311Q204 311 181 294T133 239T107 157Q107 98 150 60T250 21Z"></path>
<path stroke-width="1" id="E1-MJMAIN-33" d="M127 463Q100 463 85 480T69 524Q69 579 117 622T233 665Q268 665 277 664Q351 652 390 611T430 522Q430 470 396 421T302 350L299 348Q299 347 308 345T337 336T375 315Q457 262 457 175Q457 96 395 37T238 -22Q158 -22 100 21T42 130Q42 158 60 175T105 193Q133 193 151 175T169 130Q169 119 166 110T159 94T148 82T136 74T126 70T118 67L114 66Q165 21 238 21Q293 21 321 74Q338 107 338 175V195Q338 290 274 322Q259 328 213 329L171 330L168 332Q166 335 166 348Q166 366 174 366Q202 366 232 371Q266 376 294 413T322 525V533Q322 590 287 612Q265 626 240 626Q208 626 181 615T143 592T132 580H135Q138 579 143 578T153 573T165 566T175 555T183 540T186 520Q186 498 172 481T127 463Z"></path>
</defs>
<g stroke="currentColor" fill="currentColor" stroke-width="0" transform="matrix(1 0 0 -1 0 0)">
 <use xlink:href="#E1-MJMATHI-50" x="0" y="0"></use>
 <use xlink:href="#E1-MJMAIN-3D" x="1029" y="0"></use>
 <use xlink:href="#E1-MJMATHI-50" x="2085" y="0"></use>
 <use xlink:href="#E1-MJMAIN-28" x="2837" y="0"></use>
 <use xlink:href="#E1-MJMATHI-44" x="3226" y="0"></use>
 <use xlink:href="#E1-MJMAIN-36" x="4055" y="0"></use>
 <use xlink:href="#E1-MJMAIN-29" x="4555" y="0"></use>
 <use xlink:href="#E1-MJMAIN-2217" x="5167" y="0"></use>
 <use xlink:href="#E1-MJMATHI-50" x="5890" y="0"></use>
 <use xlink:href="#E1-MJMAIN-28" x="6641" y="0"></use>
 <use xlink:href="#E1-MJMATHI-44" x="7031" y="0"></use>
 <use xlink:href="#E1-MJMAIN-36" x="7859" y="0"></use>
 <use xlink:href="#E1-MJMAIN-2192" x="8637" y="0"></use>
 <use xlink:href="#E1-MJMAIN-31" x="9916" y="0"></use>
 <use xlink:href="#E1-MJMAIN-29" x="10416" y="0"></use>
 <use xlink:href="#E1-MJMAIN-2217" x="11028" y="0"></use>
 <use xlink:href="#E1-MJMATHI-50" x="11751" y="0"></use>
 <use xlink:href="#E1-MJMAIN-28" x="12502" y="0"></use>
 <use xlink:href="#E1-MJMATHI-44" x="12892" y="0"></use>
 <use xlink:href="#E1-MJMAIN-36" x="13720" y="0"></use>
 <use xlink:href="#E1-MJMAIN-2192" x="14498" y="0"></use>
 <use xlink:href="#E1-MJMATHI-44" x="15777" y="0"></use>
 <use xlink:href="#E1-MJMAIN-38" x="16605" y="0"></use>
 <use xlink:href="#E1-MJMAIN-29" x="17106" y="0"></use>
 <use xlink:href="#E1-MJMAIN-2217" x="17717" y="0"></use>
 <use xlink:href="#E1-MJMATHI-50" x="18440" y="0"></use>
 <use xlink:href="#E1-MJMAIN-28" x="19192" y="0"></use>
 <use xlink:href="#E1-MJMATHI-44" x="19581" y="0"></use>
 <use xlink:href="#E1-MJMAIN-38" x="20410" y="0"></use>
 <use xlink:href="#E1-MJMAIN-2192" x="21188" y="0"></use>
 <use xlink:href="#E1-MJMAIN-36" x="22466" y="0"></use>
 <use xlink:href="#E1-MJMAIN-29" x="22967" y="0"></use>
 <use xlink:href="#E1-MJMAIN-2217" x="23578" y="0"></use>
 <use xlink:href="#E1-MJMATHI-50" x="24301" y="0"></use>
 <use xlink:href="#E1-MJMAIN-28" x="25053" y="0"></use>
 <use xlink:href="#E1-MJMATHI-44" x="25442" y="0"></use>
 <use xlink:href="#E1-MJMAIN-38" x="26271" y="0"></use>
 <use xlink:href="#E1-MJMAIN-2192" x="27049" y="0"></use>
 <use xlink:href="#E1-MJMATHI-44" x="28327" y="0"></use>
 <use xlink:href="#E1-MJMAIN-38" x="29156" y="0"></use>
 <use xlink:href="#E1-MJMAIN-29" x="29656" y="0"></use>
 <use xlink:href="#E1-MJMAIN-2217" x="30268" y="0"></use>
 <use xlink:href="#E1-MJMATHI-50" x="30991" y="0"></use>
 <use xlink:href="#E1-MJMAIN-28" x="31742" y="0"></use>
 <use xlink:href="#E1-MJMATHI-44" x="32132" y="0"></use>
 <use xlink:href="#E1-MJMAIN-38" x="32960" y="0"></use>
 <use xlink:href="#E1-MJMAIN-2192" x="33738" y="0"></use>
 <use xlink:href="#E1-MJMAIN-33" x="35017" y="0"></use>
 <use xlink:href="#E1-MJMAIN-29" x="35517" y="0"></use>
</g>
</svg>